<?xml version="1.0" encoding="UTF-8"?>
<!DOCTYPE svg PUBLIC "-//W3C//DTD SVG 1.1//EN" "http://www.w3.org/Graphics/SVG/1.1/DTD/svg11.dtd">
<!-- Creator: CorelDRAW X8 -->
<svg xmlns="http://www.w3.org/2000/svg" xml:space="preserve" width="254mm" height="254mm" version="1.1" style="shape-rendering:geometricPrecision; text-rendering:geometricPrecision; image-rendering:optimizeQuality; fill-rule:evenodd; clip-rule:evenodd"
viewBox="0 0 25400 25400"
 xmlns:xlink="http://www.w3.org/1999/xlink">
 <defs>
  <style type="text/css">
   <![CDATA[
    .fil2 {fill:url(#id0)}
    .fil3 {fill:url(#id1)}
    .fil0 {fill:url(#id2)}
    .fil1 {fill:url(#id3)}
   ]]>
  </style>
  <linearGradient id="id0" gradientUnits="userSpaceOnUse" x1="13148.9" y1="19277.1" x2="16908.6" y2="3664.89">
   <stop offset="0" style="stop-opacity:1; stop-color:#EE6B60"/>
   <stop offset="0.509804" style="stop-opacity:1; stop-color:#60A3EE"/>
   <stop offset="1" style="stop-opacity:1; stop-color:#5BBFBF"/>
  </linearGradient>
  <linearGradient id="id1" gradientUnits="userSpaceOnUse" xlink:href="#id0" x1="13148.9" y1="19277" x2="16908.7" y2="3665.02">
  </linearGradient>
  <linearGradient id="id2" gradientUnits="userSpaceOnUse" xlink:href="#id0" x1="13148.9" y1="19277.1" x2="16908.6" y2="3664.89">
  </linearGradient>
  <linearGradient id="id3" gradientUnits="userSpaceOnUse" xlink:href="#id0" x1="13148.9" y1="19277.1" x2="16908.6" y2="3664.89">
  </linearGradient>
 </defs>
 <g id="Layer_x0020_1">
  <metadata id="CorelCorpID_0Corel-Layer"/>
  <g id="_2648392229264">
   <g>
    <path class="fil0" d="M8013 17395c-125,-1029 2141,2237 2243,2604 69,247 -898,186 -1057,168 -637,-71 -546,49 -703,-629 -136,-583 -416,-1591 -483,-2143zm3375 -1268c1591,-267 3254,1242 4246,2334 570,629 1077,1366 1036,2259 -36,786 -335,1864 -941,2399 -287,253 -613,552 -962,707 -798,355 -461,-319 -521,-739 -127,-898 -274,-1801 -607,-2651 -315,-807 -645,-1521 -1041,-2290 -308,-601 -1001,-1491 -1210,-2019zm-4381 -3347c110,-175 1573,-167 1821,52 131,117 623,1238 768,1507 430,800 1240,1963 1768,2746 605,898 1147,1901 1611,2881 336,708 993,2897 817,3613 -85,343 -734,-781 -869,-953 -348,-443 -645,-834 -973,-1294 -605,-846 -1300,-1750 -1933,-2583 -1026,-1349 -2140,-2402 -2687,-4093 -97,-298 -467,-1645 -323,-1876zm866 -4094l752 3598c-197,75 -1193,-14 -1466,-20 -281,-5 -106,-286 -111,-509 -14,-719 474,-2655 825,-3069zm6303 -65c-105,-751 2329,-219 2744,-104 453,126 819,396 855,896 27,363 -148,1142 -361,1443 -294,416 -558,630 -1068,709 -338,52 -1152,183 -1346,-198 -177,-350 -767,-2341 -824,-2746zm-4671 -338c53,-601 2525,-176 2876,227 311,356 631,754 680,1234 45,433 -142,1125 -510,1392 -327,236 -807,593 -1194,702 -803,227 -852,214 -1194,-487 -287,-590 -712,-2447 -658,-3068zm2705 -6063c912,-44 1374,296 1141,1275 -159,667 -656,1060 -1306,1215 -570,136 -455,-114 -570,-624 -66,-292 -187,-693 -294,-972 -145,-375 -445,-636 -64,-740 422,-115 658,-133 1093,-154zm1869 5506c-57,-47 -472,-1982 -640,-2322 -300,-610 -462,-408 -101,-887 188,-249 359,-723 467,-1018 136,-369 13,-824 -118,-1182 -202,-549 -335,-548 -888,-594 -338,-29 -2421,124 -2528,379 0,8 430,989 481,1125 147,393 258,874 328,1288 78,462 192,2716 -27,3025l-1 39 -495 -5c3,-236 99,-229 181,-429 59,-145 69,-304 110,-455 85,-316 84,-665 77,-992 -9,-429 -198,-1603 -361,-1986 -118,-278 -650,-1329 -840,-1508 -105,-99 -316,-35 -286,126 14,77 170,263 220,367 128,265 239,552 362,822 304,663 423,1159 458,1894 20,429 -129,1590 -597,1753 -734,254 -999,-676 -1030,-1220 -33,-567 -174,-1469 -357,-2005 -106,-312 -242,-511 -369,-793 -256,-569 -477,-105 -445,-18 84,225 285,473 396,793 97,281 215,613 284,899 178,737 69,1437 208,2043 79,344 144,567 294,887 148,316 110,651 202,984 183,661 230,1310 420,1929 210,678 399,1064 653,1696 149,370 1685,2967 1683,2975 -168,51 -966,58 -1098,-40 -109,-80 -534,-725 -621,-874 -731,-1251 -1376,-2923 -1554,-4359 -46,-371 -154,-893 -142,-1253 9,-305 54,-1034 -12,-1298 -621,-64 -570,74 -831,509 -505,843 -970,2197 -1025,3168 -43,760 -154,1802 -9,2534 153,778 447,1451 617,2190 325,1411 782,2978 1188,4372 208,716 480,1357 729,2061 108,303 584,1985 1128,1546l-35 15 -1374 -3241 99 -42c1759,-117 1521,-516 2584,992 574,815 1014,1477 1723,2198 535,544 594,420 1305,427 523,6 970,-70 1408,-375 748,-521 1296,-1641 1378,-2528 196,-2112 -962,-3759 -2727,-4819 -801,-480 -1817,-808 -2337,-1590 -458,-688 -1192,-1730 -1438,-2493 533,-239 1201,-285 1780,-623 416,-242 950,-925 1039,-1390 134,-696 -90,-1359 -430,-1955 -119,-209 -398,-479 -591,-625 -433,-325 -714,-194 -904,-313l22 -2152c85,-90 938,-359 1112,-262 263,145 497,734 541,1020 147,972 146,1681 376,2691 366,1607 697,3211 1446,4693 801,1585 2399,4741 2802,6460 99,425 227,821 328,1232 109,440 48,847 116,1299 722,-165 584,-471 460,-1189 -86,-495 -119,-1049 -249,-1531 -222,-826 -584,-1873 -951,-2645 -479,-1009 -2223,-4028 -2282,-4946 1318,-308 2046,-65 2729,-1464 239,-490 281,-1238 87,-1749 -219,-579 -658,-697 -1173,-951 683,-1247 890,-1800 583,-3278 -114,-547 -253,-1125 -470,-1641 -80,-193 -214,-560 -330,-714 -79,-102 -498,-434 -532,-184 -20,144 281,505 360,666 101,207 187,550 264,780 222,663 313,1030 383,1736 105,1065 -299,2844 -1737,1830 -967,-682 -929,-2075 -987,-3130 -41,-749 -150,-1080 -309,-1779 -168,-745 -941,-851 -524,-166 599,985 323,2461 561,3597 102,486 271,1138 600,1516 122,140 517,499 223,492 -127,-3 -989,-4 -1040,-35z"/>
    <path class="fil1" d="M18896 17682c20,-2234 3607,-1577 3066,648 -173,713 -938,1652 -1788,1392 -755,-231 -1284,-1308 -1278,-2040zm-510 -13270c45,-838 1468,1644 1518,1718 485,715 906,1753 1199,2572 400,1121 1457,5243 1005,6216 -272,585 -815,297 -1143,-52 -338,-360 -467,-774 -679,-1210 -311,-642 -822,-2077 -996,-2772 -262,-1045 -490,-2136 -544,-3214 -28,-551 -50,-1112 -119,-1659 -34,-272 -249,-1458 -241,-1599zm1751 268c96,176 267,490 329,671 52,155 435,1612 352,1641l-9 5c-728,-1024 -1223,-2132 -2020,-3136 -135,-169 -963,-1422 -1278,-1069 -50,55 472,1592 518,1835 288,1499 56,3123 364,4539 277,1272 1200,4730 1788,5923 430,871 -566,371 -1134,885 -1043,944 -851,2546 -141,3651 796,1237 2244,1257 3093,9 429,-631 714,-1075 619,-1881 -39,-331 -143,-697 -294,-995 -72,-142 -148,-269 -247,-394 -64,-79 -319,-312 -305,-338 441,-366 778,-336 900,-1111 75,-476 72,-1363 19,-1844 -61,-561 -273,-1079 -372,-1632 -288,-1618 -862,-3225 -1123,-4930 -62,-408 -202,-1265 -382,-1613 -90,-177 -893,-960 -1068,-811 17,40 321,466 391,595z"/>
    <path class="fil2" d="M3135 15789c-8,-299 1110,-225 1289,-208 576,57 752,158 1274,316 840,253 675,1604 88,2118 -1149,1008 -875,949 -1408,-273 -119,-273 -1243,-1947 -1243,-1953zm2125 -669c-81,52 -1015,-2 -1193,-1 -564,3 -821,162 -808,-431 16,-710 181,-1422 421,-2090 305,-847 259,-357 809,843 97,213 830,1572 771,1679zm736 -10678c350,766 669,1886 497,2727 -185,901 -608,1467 -951,2314 -477,1177 -668,2865 -317,4117 62,219 472,1090 319,1234 -118,-71 -751,-1427 -829,-1638 -127,-343 -471,-1816 -563,-1950 -361,53 -845,1287 -979,1617 -112,275 -208,748 -269,1048 -43,213 -66,1091 -114,1161 -412,27 -807,-2407 -796,-2801 27,-961 341,-2088 664,-2994 166,-469 347,-789 595,-1213 323,-553 -279,-449 -593,110 -384,681 -641,2025 -851,2801 -196,723 -174,2341 -36,3087 185,1004 525,1689 1151,2499 688,890 935,1247 1332,2322 162,439 313,1004 361,1469 29,278 -19,461 226,643 99,74 409,400 534,329l54 -13 -515 -2267 1097 -671c590,254 1002,2204 1118,2793 48,244 394,1187 507,1420 158,324 76,366 383,593 146,108 453,344 630,332 -806,-1153 -1120,-1948 -1321,-3354 -63,-434 -330,-1386 -608,-1715 -562,-666 56,-884 -20,-1776 -63,-740 -468,-1049 -692,-1675 -232,-649 -396,-1108 -532,-1793 -177,-892 92,-3012 444,-3868 647,-1572 1203,-1560 913,-3514 -74,-501 -227,-892 -422,-1350 -100,-234 -154,-201 65,-334 245,-149 483,-332 756,-428 534,-189 144,-577 -45,-524 -539,150 -2252,1620 -2653,2089 -98,115 -505,507 -379,650 275,312 439,-128 612,-316 112,-121 1150,-1114 1227,-1161z"/>
    <path class="fil3" d="M23918 11493c107,-399 -119,-426 -410,-339 -140,41 -690,128 -754,191 -84,83 -17,285 35,336 73,72 252,4 357,-20 89,-20 766,-165 772,-168z"/>
   </g>
  </g>
 </g>
</svg>
