<?xml version="1.0" encoding="UTF-8" standalone="no"?>
<!-- Creator: CorelDRAW X8 -->

<svg
   xmlns:dc="http://purl.org/dc/elements/1.1/"
   xmlns:cc="http://creativecommons.org/ns#"
   xmlns:rdf="http://www.w3.org/1999/02/22-rdf-syntax-ns#"
   xmlns:svg="http://www.w3.org/2000/svg"
   xmlns="http://www.w3.org/2000/svg"
   xmlns:sodipodi="http://sodipodi.sourceforge.net/DTD/sodipodi-0.dtd"
   xmlns:inkscape="http://www.inkscape.org/namespaces/inkscape"
   xml:space="preserve"
   width="254mm"
   height="254mm"
   version="1.1"
   shape-rendering="geometricPrecision"
   text-rendering="geometricPrecision"
   image-rendering="optimizeQuality"
   fill-rule="evenodd"
   clip-rule="evenodd"
   viewBox="0 0 25400 25400"
   id="svg53"
   sodipodi:docname="syssy444sos.svg"
   inkscape:version="0.92.2 (5c3e80d, 2017-08-06)"><metadata
     id="metadata57"><rdf:RDF><cc:Work
         rdf:about=""><dc:format>image/svg+xml</dc:format><dc:type
           rdf:resource="http://purl.org/dc/dcmitype/StillImage" /></cc:Work></rdf:RDF></metadata><sodipodi:namedview
     pagecolor="#ffffff"
     bordercolor="#666666"
     borderopacity="1"
     objecttolerance="10"
     gridtolerance="10"
     guidetolerance="10"
     inkscape:pageopacity="0"
     inkscape:pageshadow="2"
     inkscape:window-width="1920"
     inkscape:window-height="1027"
     id="namedview55"
     showgrid="false"
     inkscape:zoom="0.49166667"
     inkscape:cx="624.69505"
     inkscape:cy="362.54592"
     inkscape:window-x="-8"
     inkscape:window-y="54"
     inkscape:window-maximized="1"
     inkscape:current-layer="svg53" /><defs
     id="defs38"><radialGradient
       id="id0"
       gradientUnits="userSpaceOnUse"
       gradientTransform="matrix(-0.04371335,-1.2691716,2.8770654,-0.09909312,-85195.856,52552.77)"
       cx="11995.1"
       cy="33963.699"
       r="25803.8"
       fx="11995.1"
       fy="33963.699"><stop
         offset="0"
         stop-opacity="1"
         stop-color="#00808B"
         id="stop2" /><stop
         offset="0.44924572"
         stop-opacity="1"
         stop-color="#00808B"
         id="stop4" /><stop
         offset="0.69598889"
         stop-opacity="1"
         stop-color="#720678"
         id="stop6" /><stop
         offset="1"
         stop-opacity="1"
         stop-color="darkred"
         id="stop8" /></radialGradient><radialGradient
       id="id1"
       gradientUnits="userSpaceOnUse"
       gradientTransform="matrix(-0.0408733,-1.3541609,2.9274626,-0.08836105,-65202.668,60252.15)"
       cx="20682.5"
       cy="29626.5"
       r="20404"
       fx="20682.5"
       fy="29626.5"><stop
         offset="0"
         stop-opacity="1"
         stop-color="#00808B"
         id="stop11" /><stop
         offset="0.38337037"
         stop-opacity="1"
         stop-color="#00808B"
         id="stop13" /><stop
         offset="0.65991443"
         stop-opacity="1"
         stop-color="#720678"
         id="stop15" /><stop
         offset="1"
         stop-opacity="1"
         stop-color="darkred"
         id="stop17" /></radialGradient><radialGradient
       id="id2"
       gradientUnits="userSpaceOnUse"
       gradientTransform="matrix(-0.01018524,-1.260755,2.9630056,-0.02393716,-93193.541,42878.088)"
       cx="7611.3447"
       cy="33901.137"
       r="23269.8"
       fx="7611.3447"
       fy="33901.137"><stop
         offset="0"
         stop-opacity="1"
         stop-color="#00808B"
         id="stop20" /><stop
         offset="0.49194404"
         stop-opacity="1"
         stop-color="#00808B"
         id="stop22" /><stop
         offset="0.71844029"
         stop-opacity="1"
         stop-color="#720678"
         id="stop24" /><stop
         offset="1"
         stop-opacity="1"
         stop-color="darkred"
         id="stop26" /></radialGradient><radialGradient
       id="id3"
       gradientUnits="userSpaceOnUse"
       gradientTransform="matrix(-1.5019454,-7.9412034,18.571619,-3.512473,-270026.73,279798.64)"
       cx="25053.699"
       cy="17915"
       r="1407.93"
       fx="25053.699"
       fy="17915"><stop
         offset="0"
         stop-opacity="1"
         stop-color="#00808B"
         id="stop29" /><stop
         offset="0.329412"
         stop-opacity="1"
         stop-color="#00808B"
         id="stop31" /><stop
         offset="0.529412"
         stop-opacity="1"
         stop-color="#720678"
         id="stop33" /><stop
         offset="1"
         stop-opacity="1"
         stop-color="darkred"
         id="stop35" /></radialGradient></defs><g
     id="Layer_x0020_1"><metadata
       id="CorelCorpID_0Corel-Layer" /><g
       id="_2134457016496"><g
         id="g49"><path
           fill="url(#id0)"
           d="M8421 17188c-125,-1029 2140,2237 2242,2603 69,248 -897,186 -1057,168 -636,-70 -545,49 -702,-628 -136,-584 -416,-1592 -483,-2143zm3374 -1268c1592,-267 3254,1241 4246,2334 571,629 1077,1366 1036,2259 -36,786 -335,1864 -941,2399 -286,252 -613,552 -961,707 -798,354 -461,-319 -521,-740 -128,-897 -274,-1800 -607,-2650 -316,-807 -646,-1522 -1041,-2291 -309,-600 -1001,-1491 -1211,-2018zm-4380 -3347c110,-175 1573,-167 1820,52 132,117 624,1238 768,1507 430,800 1241,1962 1768,2745 605,899 1147,1901 1612,2881 336,709 993,2897 816,3613 -85,344 -733,-780 -868,-952 -348,-443 -645,-835 -974,-1294 -604,-847 -1299,-1751 -1932,-2583 -1027,-1349 -2140,-2402 -2688,-4093 -96,-299 -467,-1645 -322,-1876zm865 -4094l752 3598c-196,74 -1193,-15 -1465,-20 -281,-6 -107,-286 -111,-509 -15,-719 474,-2655 824,-3069zm6304 -65c-105,-752 2328,-219 2744,-104 452,125 819,396 855,896 26,362 -149,1142 -361,1443 -294,416 -558,630 -1069,709 -337,52 -1152,183 -1345,-198 -178,-350 -768,-2341 -824,-2746zm-4672 -338c53,-602 2525,-176 2877,227 310,356 630,754 680,1233 44,434 -143,1126 -511,1392 -327,237 -806,594 -1194,703 -802,226 -852,214 -1193,-488 -287,-590 -713,-2446 -659,-3067zm2706 -6063c911,-44 1374,295 1140,1275 -158,667 -655,1060 -1306,1215 -569,135 -455,-114 -570,-625 -65,-292 -186,-692 -294,-971 -144,-375 -444,-637 -64,-740 423,-115 658,-133 1094,-154zm1869 5506c-58,-47 -472,-1982 -640,-2322 -301,-610 -463,-408 -101,-887 187,-249 358,-723 467,-1018 135,-370 12,-825 -119,-1182 -201,-550 -334,-548 -888,-595 -337,-28 -2421,125 -2527,380 -1,7 430,989 481,1125 146,393 258,873 327,1287 78,463 193,2717 -27,3026l0 39 -495 -6c2,-236 99,-228 180,-428 59,-145 69,-304 110,-455 86,-316 85,-665 78,-992 -10,-429 -198,-1603 -361,-1986 -118,-278 -651,-1329 -841,-1509 -104,-99 -315,-35 -286,126 14,77 170,263 221,368 128,264 238,552 362,821 303,664 423,1159 457,1895 21,429 -128,1590 -597,1752 -734,255 -998,-676 -1029,-1219 -33,-567 -175,-1469 -358,-2005 -106,-312 -242,-511 -369,-793 -256,-569 -476,-106 -444,-19 83,226 284,473 395,794 98,280 215,612 284,899 178,736 70,1437 209,2043 78,344 143,567 293,887 148,316 111,651 202,983 183,661 230,1311 421,1930 209,677 399,1064 652,1696 149,370 1686,2967 1684,2974 -169,51 -966,59 -1099,-39 -108,-80 -534,-726 -621,-874 -730,-1252 -1375,-2924 -1553,-4359 -47,-371 -154,-893 -143,-1253 10,-305 55,-1035 -12,-1298 -621,-65 -569,73 -830,509 -505,843 -971,2197 -1026,3168 -42,760 -153,1801 -9,2533 153,779 447,1452 618,2190 325,1411 782,2978 1187,4373 209,716 480,1356 730,2061 107,303 583,1985 1128,1546l-36 15 -1374 -3242 99 -42c1759,-116 1522,-515 2584,993 575,815 1014,1476 1724,2198 535,544 593,420 1305,427 523,5 969,-71 1408,-376 748,-520 1295,-1641 1378,-2527 196,-2113 -963,-3760 -2728,-4819 -800,-480 -1816,-809 -2336,-1590 -458,-688 -1192,-1731 -1438,-2494 533,-238 1200,-284 1779,-622 416,-242 950,-926 1040,-1390 134,-696 -91,-1359 -430,-1955 -119,-210 -398,-479 -592,-625 -432,-325 -713,-195 -903,-314l21 -2152c86,-89 938,-358 1113,-261 262,145 497,734 540,1020 148,972 147,1680 377,2691 365,1606 696,3211 1446,4693 801,1585 2398,4741 2801,6460 100,425 227,821 329,1232 108,439 48,846 116,1298 721,-164 583,-470 459,-1189 -85,-494 -119,-1048 -248,-1530 -222,-826 -584,-1873 -951,-2645 -480,-1009 -2223,-4029 -2282,-4946 1317,-308 2045,-65 2728,-1464 239,-490 282,-1239 88,-1749 -220,-579 -659,-697 -1173,-952 683,-1246 890,-1799 583,-3277 -114,-547 -254,-1125 -470,-1641 -81,-193 -214,-561 -331,-714 -78,-103 -498,-434 -532,-184 -20,144 281,504 360,665 102,208 187,550 264,781 222,663 314,1030 383,1736 106,1065 -298,2844 -1736,1830 -968,-683 -930,-2075 -988,-3130 -41,-749 -150,-1080 -308,-1779 -169,-745 -942,-852 -524,-166 599,985 322,2461 561,3597 102,486 270,1138 600,1516 122,140 516,499 223,492 -127,-3 -990,-4 -1040,-35z"
           id="path41"
           style="fill:url(#id0)" /><path
           fill="url(#id1)"
           d="M19304 17475c19,-2234 3606,-1577 3066,648 -173,712 -938,1651 -1789,1392 -755,-231 -1283,-1309 -1277,-2040zm-511 -13270c46,-838 1469,1643 1519,1717 484,716 906,1753 1199,2573 400,1121 1456,5243 1004,6216 -271,585 -815,296 -1143,-52 -338,-360 -466,-774 -678,-1211 -312,-641 -822,-2077 -996,-2772 -263,-1044 -491,-2135 -545,-3213 -28,-551 -49,-1113 -118,-1660 -34,-271 -249,-1457 -242,-1598zm1752 268c96,175 267,490 328,671 52,155 436,1611 352,1641l-8 5c-728,-1025 -1223,-2132 -2020,-3136 -135,-170 -964,-1423 -1279,-1069 -49,55 472,1592 519,1834 287,1500 56,3124 364,4539 276,1273 1200,4730 1788,5923 429,871 -567,372 -1134,886 -1043,944 -852,2546 -141,3650 796,1238 2243,1257 3092,10 430,-632 714,-1076 620,-1881 -39,-331 -144,-697 -295,-996 -72,-142 -147,-268 -247,-393 -63,-79 -319,-312 -304,-338 441,-367 778,-336 899,-1111 75,-476 72,-1363 19,-1844 -61,-561 -273,-1079 -371,-1633 -289,-1618 -863,-3224 -1123,-4929 -62,-408 -202,-1265 -382,-1614 -91,-176 -893,-960 -1069,-810 18,40 321,466 392,595z"
           id="path43"
           style="fill:url(#id1)" /><path
           fill="url(#id2)"
           d="M3542 15582c-7,-299 1110,-226 1289,-208 576,57 752,158 1275,315 840,254 675,1605 88,2119 -1150,1007 -875,949 -1409,-274 -119,-272 -1242,-1946 -1243,-1952zm2125 -669c-80,51 -1014,-2 -1192,-1 -565,3 -822,161 -808,-431 16,-710 180,-1422 421,-2090 305,-847 259,-358 808,842 98,213 831,1572 771,1680zm736 -10678c351,766 670,1886 497,2726 -184,901 -608,1467 -951,2315 -476,1177 -668,2864 -316,4116 61,220 472,1091 319,1235 -118,-71 -751,-1427 -830,-1638 -127,-343 -470,-1816 -562,-1950 -362,53 -846,1287 -980,1617 -111,275 -207,748 -268,1047 -44,214 -67,1092 -114,1161 -412,28 -808,-2407 -797,-2800 28,-961 342,-2088 664,-2995 167,-468 347,-788 595,-1212 324,-553 -278,-449 -593,110 -384,681 -641,2025 -851,2800 -196,723 -173,2342 -36,3087 185,1005 525,1690 1151,2500 689,890 936,1246 1332,2321 162,440 314,1004 362,1469 28,278 -20,462 226,644 98,73 408,400 533,328l54 -12 -514 -2267 1097 -671c590,253 1002,2204 1118,2793 48,244 394,1187 507,1419 157,324 76,367 382,594 146,108 454,343 630,331 -805,-1153 -1120,-1948 -1321,-3353 -62,-434 -330,-1386 -608,-1715 -561,-666 56,-884 -20,-1776 -63,-741 -467,-1049 -692,-1675 -232,-649 -396,-1108 -532,-1794 -177,-891 92,-3011 445,-3868 647,-1571 1203,-1560 913,-3513 -74,-501 -228,-892 -423,-1351 -99,-233 -154,-201 65,-333 245,-149 484,-332 756,-429 534,-189 145,-577 -45,-523 -538,150 -2252,1620 -2652,2089 -99,115 -505,507 -379,650 275,312 439,-129 612,-316 112,-122 1149,-1114 1226,-1161z"
           id="path45"
           style="fill:url(#id2)" /><path
           fill="url(#id3)"
           d="M24325 11286c108,-399 -118,-426 -409,-340 -141,42 -690,129 -754,192 -84,83 -17,284 34,335 74,73 252,5 357,-19 89,-20 766,-165 772,-168z"
           id="path47"
           style="fill:url(#id3)" /></g></g></g></svg>