<?xml version="1.0" encoding="utf-8"?>
<!-- Generator: Adobe Illustrator 17.0.0, SVG Export Plug-In . SVG Version: 6.00 Build 0)  -->
<!DOCTYPE svg PUBLIC "-//W3C//DTD SVG 1.1//EN" "http://www.w3.org/Graphics/SVG/1.1/DTD/svg11.dtd">
<svg version="1.1" id="Layer_1" xmlns="http://www.w3.org/2000/svg" xmlns:xlink="http://www.w3.org/1999/xlink" x="0px" y="0px"
	 width="960px" height="560px" viewBox="0 0 960 560" enable-background="new 0 0 960 560" xml:space="preserve">
<g>
	<polygon fill="#303030" points="49.845,324.103 110.777,420.475 157.777,338.077 81.992,243.531 	"/>
	<g>
		<polygon fill="#F4383E" points="839.958,323.929 49.992,323.929 81.992,243.531 909.958,243.531 		"/>
		<g>
			<path fill="#FFFDFD" d="M121.108,307.318H94.252v-44.712h15.408v33.12h12.456L121.108,307.318z"/>
			<path fill="#FFFDFD" d="M139.828,291.479c0,2.592,1.163,3.888,3.492,3.888c2.328,0,3.492-1.319,3.492-3.96v-28.8h15.408v29.736
				c0,5.281-1.656,9.216-4.968,11.808s-8.064,3.888-14.256,3.888c-12.577,0-18.864-5.184-18.864-15.552v-29.88h15.696V291.479z"/>
			<path fill="#FFFDFD" d="M166.683,284.674c0-7.992,1.595-13.788,4.788-17.388c3.191-3.6,8.448-5.4,15.768-5.4
				c7.319,0,12.552,1.776,15.696,5.328c3.144,3.553,4.716,9.324,4.716,17.316c0,7.992-1.62,13.909-4.86,17.748
				c-3.24,3.841-8.472,5.76-15.696,5.76c-7.225,0-12.433-1.896-15.624-5.688C168.278,298.559,166.683,292.667,166.683,284.674z
				 M191.235,276.106c-0.625-1.224-1.969-1.836-4.032-1.836c-2.064,0-3.384,0.601-3.96,1.8c-0.576,1.2-0.864,3.769-0.864,7.704
				v3.168c0,4.032,0.312,6.649,0.936,7.848c0.624,1.2,1.992,1.8,4.104,1.8c2.112,0,3.432-0.576,3.96-1.728
				c0.527-1.152,0.792-3.719,0.792-7.704v-3.312C192.171,279.911,191.858,277.331,191.235,276.106z"/>
			<path fill="#FFFDFD" d="M249.915,307.318h-14.688l-9.072-17.64h-0.504v17.64h-13.68v-44.712h15.192l8.496,18.216h0.432v-18.216
				h13.824V307.318z"/>
			<path fill="#FFFDFD" d="M293.619,307.318h-14.688l-9.072-17.64h-0.504v17.64h-13.68v-44.712h15.192l8.496,18.216h0.432v-18.216
				h13.824V307.318z"/>
			<path fill="#FFFDFD" d="M297.938,284.674c0-7.992,1.595-13.788,4.788-17.388c3.191-3.6,8.448-5.4,15.768-5.4
				c7.319,0,12.552,1.776,15.696,5.328c3.144,3.553,4.716,9.324,4.716,17.316c0,7.992-1.62,13.909-4.86,17.748
				c-3.24,3.841-8.472,5.76-15.696,5.76c-7.225,0-12.433-1.896-15.624-5.688C299.533,298.559,297.938,292.667,297.938,284.674z
				 M322.49,276.106c-0.625-1.224-1.969-1.836-4.032-1.836c-2.064,0-3.384,0.601-3.96,1.8c-0.576,1.2-0.864,3.769-0.864,7.704v3.168
				c0,4.032,0.312,6.649,0.936,7.848c0.624,1.2,1.992,1.8,4.104,1.8c2.112,0,3.432-0.576,3.96-1.728
				c0.527-1.152,0.792-3.719,0.792-7.704v-3.312C323.426,279.911,323.113,277.331,322.49,276.106z"/>
			<path fill="#FFFDFD" d="M381.17,307.318h-14.688l-9.072-17.64h-0.504v17.64h-13.68v-44.712h15.192l8.496,18.216h0.432v-18.216
				h13.824V307.318z"/>
			<path fill="#FFFDFD" d="M418.177,274.774h-9.504v32.544h-15.336v-32.544h-10.008l0.648-12.168h35.064L418.177,274.774z"/>
			<path fill="#FFFDFD" d="M436.825,307.318h-15.192v-44.712h15.192V307.318z"/>
			<path fill="#FFFDFD" d="M471.529,307.318h-28.512v-44.712h29.52l-1.008,11.88h-13.104v5.4h11.448v10.368h-11.448v6.12h14.112
				L471.529,307.318z"/>
			<path fill="#FFFDFD" d="M507.457,274.774h-9.504v32.544h-15.336v-32.544h-10.008l0.648-12.168h35.064L507.457,274.774z"/>
			<path fill="#FFFDFD" d="M538.993,307.318H510.48v-44.712H540l-1.008,11.88h-13.104v5.4h11.448v10.368h-11.448v6.12H540
				L538.993,307.318z"/>
			<path fill="#FFFDFD" d="M559.296,307.318h-15.192v-44.712h15.192V307.318z"/>
			<path fill="#FFFDFD" d="M592.344,307.318h-26.856v-44.712h15.408v33.12h12.456L592.344,307.318z"/>
			<path fill="#FFFDFD" d="M610.847,307.318h-15.192v-44.712h15.192V307.318z"/>
			<path fill="#FFFDFD" d="M634.462,262.606v35.352c0,3.841-0.984,6.48-2.952,7.92c-1.969,1.44-5.641,2.16-11.016,2.16h-5.256
				l-0.792-10.656h3.6c0.528,0,0.876-0.096,1.044-0.288c0.168-0.191,0.252-0.504,0.252-0.936v-33.552H634.462z"/>
			<path fill="#FFFDFD" d="M639.071,284.674c0-7.992,1.595-13.788,4.787-17.388c3.192-3.6,8.448-5.4,15.769-5.4
				c7.32,0,12.552,1.776,15.697,5.328c3.143,3.553,4.716,9.324,4.716,17.316c0,7.992-1.62,13.909-4.86,17.748
				c-3.24,3.841-8.473,5.76-15.697,5.76c-7.225,0-12.432-1.896-15.624-5.688C640.666,298.559,639.071,292.667,639.071,284.674z
				 M653.075,260.95c-3.528,0-5.292-1.5-5.292-4.5c0-2.999,1.764-4.5,5.292-4.5c3.527,0,5.292,1.501,5.292,4.5
				C658.367,259.451,656.602,260.95,653.075,260.95z M663.623,276.106c-0.625-1.224-1.969-1.836-4.033-1.836
				c-2.064,0-3.384,0.601-3.96,1.8c-0.576,1.2-0.864,3.769-0.864,7.704v3.168c0,4.032,0.312,6.649,0.937,7.848
				c0.623,1.2,1.991,1.8,4.104,1.8s3.432-0.576,3.96-1.728s0.792-3.719,0.792-7.704v-3.312
				C664.559,279.911,664.246,277.331,663.623,276.106z M665.819,260.95c-3.528,0-5.292-1.5-5.292-4.5c0-2.999,1.764-4.5,5.292-4.5
				c3.527,0,5.292,1.501,5.292,4.5C671.111,259.451,669.347,260.95,665.819,260.95z"/>
			<path fill="#FFFDFD" d="M699.982,307.318H684.79v-44.712h15.192V307.318z"/>
			<path fill="#FFFDFD" d="M744.838,283.99c0,15.552-7.104,23.328-21.312,23.328h-17.353v-44.712h17.712
				c7.632,0,13.032,1.836,16.2,5.508S744.838,277.078,744.838,283.99z M728.062,293.566c0.721-1.68,1.08-4.475,1.08-8.388
				c0-3.912-0.396-6.696-1.188-8.352c-0.792-1.656-2.437-2.484-4.933-2.484h-1.512v21.744h1.8
				C725.758,296.086,727.342,295.247,728.062,293.566z"/>
			<path fill="#FFFDFD" d="M777.813,307.318h-28.512v-44.712h29.521l-1.009,11.88H764.71v5.4h11.448v10.368H764.71v6.12h14.112
				L777.813,307.318z"/>
			<path fill="#FFFDFD" d="M820.438,307.318h-14.688l-9.071-17.64h-0.505v17.64h-13.68v-44.712h15.192l8.496,18.216h0.432v-18.216
				h13.824V307.318z"/>
		</g>
	</g>
	<g>
		<polygon fill="#EF1424" points="688.958,420.475 110.777,420.475 157.777,338.077 760.958,338.077 		"/>
		<g>
			<path fill="#FFFDFD" d="M195.482,406.072c1.656,0,2.829-0.426,3.519-1.276c0.69-0.852,1.035-2.519,1.035-5.002v-40.158
				c-1.887-0.69-3.151-1.472-3.795-2.346l0.69-5.727h16.146l0.69,5.727c-0.736,0.874-2.001,1.656-3.795,2.346l-0.069,39.537
				c0,5.289-1.024,9.004-3.07,11.144c-2.047,2.139-5.359,3.208-9.936,3.208s-8.498-1.197-11.765-3.588c0-0.276,0-0.771,0-1.484
				c0-0.713,0.15-1.887,0.449-3.519c0.3-1.634,0.725-3.002,1.276-4.106h6.21c0.645,1.012,1.104,2.736,1.38,5.175
				C194.677,406.048,195.021,406.072,195.482,406.072z"/>
			<path fill="#FFFDFD" d="M236.537,399.724c-6.533,0-11.419-1.885-14.663-5.658c-3.243-3.771-4.865-9.878-4.865-18.319
				c0-8.441,1.782-14.673,5.348-18.699c3.564-4.024,8.647-6.038,15.249-6.038c6.6,0,11.523,1.794,14.766,5.382
				c3.243,3.588,4.864,9.591,4.864,18.009s-1.817,14.743-5.451,18.975C248.151,397.608,243.068,399.724,236.537,399.724z
				 M229.844,362.395c-1.656,2.392-2.484,6.555-2.484,12.489s0.874,10.258,2.622,12.972c1.748,2.715,4.151,4.071,7.21,4.071
				c3.059,0,5.439-1.276,7.142-3.83c1.701-2.553,2.553-6.796,2.553-12.73c0-11.04-3.312-16.56-9.936-16.56
				C233.869,358.807,231.5,360.003,229.844,362.395z"/>
			<path fill="#FFFDFD" d="M294.048,395.342c-2.738,2.922-7.166,4.381-13.283,4.381c-6.118,0-10.408-1.437-12.869-4.313
				c-2.461-2.874-3.691-7.371-3.691-13.489v-22.287c-1.749-0.644-3.013-1.425-3.795-2.346l0.69-5.727h16.146l0.69,5.727
				c-0.736,0.874-2.001,1.656-3.795,2.346v22.563c0,3.312,0.54,5.762,1.622,7.349c1.08,1.587,3.024,2.38,5.831,2.38
				c2.805,0,4.784-0.816,5.934-2.449c1.149-1.632,1.725-4.059,1.725-7.28v-22.563c-1.887-0.69-3.151-1.472-3.795-2.346l0.69-5.727
				h15.111l0.69,5.727c-0.736,0.874-2.001,1.656-3.795,2.346v22.287C298.153,387.949,296.784,392.422,294.048,395.342z"/>
			<path fill="#FFFDFD" d="M337.551,399.172h-31.602l-0.69-5.727c0.597-0.782,1.863-1.541,3.795-2.277v-31.533
				c-1.887-0.69-3.151-1.472-3.795-2.346l0.69-5.727h16.146l0.69,5.727c-0.736,0.874-2.001,1.656-3.795,2.346v32.016h10.902
				c0.598-2.391,1.449-4.094,2.553-5.106l5.106,0.621V399.172z"/>
			<path fill="#FFFDFD" d="M371.672,395.342c-2.738,2.922-7.166,4.381-13.283,4.381c-6.118,0-10.408-1.437-12.869-4.313
				c-2.461-2.874-3.691-7.371-3.691-13.489v-22.287c-1.749-0.644-3.013-1.425-3.795-2.346l0.69-5.727h16.146l0.69,5.727
				c-0.736,0.874-2.001,1.656-3.795,2.346v22.563c0,3.312,0.54,5.762,1.622,7.349c1.08,1.587,3.024,2.38,5.831,2.38
				c2.805,0,4.784-0.816,5.934-2.449c1.149-1.632,1.725-4.059,1.725-7.28v-22.563c-1.887-0.69-3.151-1.472-3.795-2.346l0.69-5.727
				h15.111l0.69,5.727c-0.736,0.874-2.001,1.656-3.795,2.346v22.287C375.778,387.949,374.408,392.422,371.672,395.342z"/>
			<path fill="#FFFDFD" d="M420.213,365.5c0,3.128-0.978,5.75-2.933,7.866c-1.956,2.117-4.405,3.726-7.349,4.83
				c2.3,0.966,3.818,2.139,4.554,3.519l5.037,9.591c2.162,0.736,3.633,1.587,4.416,2.553l-0.69,5.313h-11.661l-7.935-16.905
				c-0.736-1.702-1.587-2.553-2.553-2.553h-4.485v11.04c3.357,0.736,5.451,1.633,6.279,2.691l-0.69,5.727h-18.63l-0.69-5.727
				c0.597-0.782,1.863-1.541,3.795-2.277v-31.533c-1.887-0.69-3.151-1.472-3.795-2.346l0.69-5.727h17.595
				c6.439,0.093,11.223,1.127,14.352,3.105C418.648,356.645,420.213,360.256,420.213,365.5z M400.686,359.083h-4.071v13.11h3.933
				c3.127,0,5.462-0.471,7.003-1.415c1.541-0.942,2.312-2.633,2.312-5.071c0-2.438-0.783-4.151-2.346-5.141
				C405.953,359.578,403.675,359.083,400.686,359.083z"/>
			<path fill="#FFFDFD" d="M443.051,351.562l0.69,5.727c-0.736,0.874-2.001,1.656-3.795,2.346v31.533
				c1.839,0.736,3.105,1.495,3.795,2.277l-0.69,5.727h-16.146l-0.69-5.727c0.597-0.782,1.863-1.541,3.795-2.277v-31.533
				c-1.887-0.69-3.151-1.472-3.795-2.346l0.69-5.727H443.051z"/>
			<path fill="#FFFDFD" d="M469.409,359.083c-1.564-0.414-3.198-0.621-4.899-0.621c-1.703,0-3.07,0.426-4.105,1.276
				c-1.035,0.852-1.553,2.047-1.553,3.588c0,1.542,0.391,2.75,1.173,3.623c0.781,0.875,2.322,1.633,4.623,2.277l6.141,1.794
				c3.312,0.966,5.945,2.473,7.901,4.52c1.955,2.047,2.932,5.049,2.932,9.004c0,4.692-1.69,8.396-5.071,11.109
				c-3.381,2.715-7.579,4.071-12.593,4.071c-2.76,0-5.601-0.356-8.521-1.069c-2.921-0.712-5.347-1.713-7.279-3.001
				c0-0.276,0-0.804,0-1.587c0-0.782,0.161-2.115,0.483-4.002c0.321-1.886,0.782-3.426,1.38-4.623h6.555
				c0.735,1.426,1.173,3.335,1.311,5.727c1.61,0.69,3.484,1.035,5.624,1.035s3.898-0.505,5.278-1.518
				c1.38-1.011,2.07-2.46,2.07-4.347c0-0.874-0.069-1.598-0.207-2.173c-0.138-0.575-0.564-1.196-1.277-1.863
				c-0.713-0.666-1.737-1.208-3.07-1.622l-7.107-2.07c-7.222-2.07-10.833-6.669-10.833-13.8c0-4.186,1.518-7.532,4.554-10.04
				c3.036-2.507,7.003-3.761,11.902-3.761s9.694,1.104,14.386,3.312c0,0.276,0,0.806,0,1.587c0,0.783-0.162,2.117-0.483,4.002
				c-0.322,1.887-0.783,3.428-1.38,4.623h-6.555C470.006,363.43,469.547,361.613,469.409,359.083z"/>
			<path fill="#FFFDFD" d="M522.262,351.631v9.867l-4.347,0.552c-0.599-0.459-1.173-1.425-1.725-2.898h-8.28v32.016
				c1.839,0.736,3.105,1.495,3.795,2.277l-0.69,5.727h-16.146l-0.69-5.727c0.597-0.782,1.863-1.541,3.795-2.277v-32.016h-8.28
				c-0.552,1.473-1.128,2.439-1.725,2.898l-4.347-0.552v-9.867H522.262z"/>
			<path fill="#FFFDFD" d="M557.728,399.172h-32.016l-0.69-5.727c0.597-0.782,1.863-1.541,3.795-2.277v-31.533
				c-1.887-0.69-3.151-1.472-3.795-2.346l0.69-5.727h31.464v12.006l-5.106,0.621c-1.059-0.92-1.909-2.622-2.553-5.106h-10.764
				v11.868h9.591c0.552-1.38,1.127-2.346,1.725-2.898l4.347,0.483v12.282l-4.347,0.552c-0.598-0.459-1.173-1.425-1.725-2.898h-9.591
				v13.179h11.316c0.597-2.391,1.449-4.094,2.553-5.106l5.106,0.621V399.172z"/>
			<path fill="#FFFDFD" d="M579.047,351.562l0.69,5.727c-0.736,0.874-2.001,1.656-3.795,2.346v31.533
				c1.839,0.736,3.105,1.495,3.795,2.277l-0.69,5.727h-16.146l-0.69-5.727c0.597-0.782,1.863-1.541,3.795-2.277v-31.533
				c-1.887-0.69-3.151-1.472-3.795-2.346l0.69-5.727H579.047z"/>
			<path fill="#FFFDFD" d="M616.444,399.172h-31.602l-0.69-5.727c0.597-0.782,1.863-1.541,3.795-2.277v-31.533
				c-1.887-0.69-3.151-1.472-3.795-2.346l0.69-5.727h16.146l0.689,5.727c-0.736,0.874-2,1.656-3.795,2.346v32.016h10.902
				c0.598-2.391,1.449-4.094,2.553-5.106l5.105,0.621V399.172z"/>
			<path fill="#FFFDFD" d="M640.182,399.172h-16.146l-0.69-5.727c0.598-0.782,1.863-1.541,3.795-2.277v-7.935l-11.247-23.391
				c-2.162-0.735-3.634-1.587-4.416-2.553l0.621-5.382v-0.069l0.069-0.276h16.146l0.69,5.727c-0.552,0.783-1.61,1.473-3.174,2.07
				l2.346,5.313c1.334,3.036,2.484,6.049,3.45,9.039l0.483,1.38h1.034c0.967-3.357,2.231-6.831,3.795-10.419l2.208-5.037
				c-1.84-0.735-3.082-1.518-3.726-2.346l0.69-5.727h15.731l0.69,5.727c-0.921,1.059-2.439,1.932-4.555,2.622l-10.901,23.322v7.935
				c1.839,0.736,3.104,1.495,3.795,2.277L640.182,399.172z"/>
		</g>
	</g>
	<g>
		<rect x="180.959" y="139.534" fill="#303030" width="80" height="88.304"/>
		<polygon fill="#EF1424" points="270.958,227.837 350.958,227.837 260.958,139.534 180.959,139.534 		"/>
	</g>
</g>
</svg>
