<?xml version="1.0" encoding="UTF-8"?>
<svg width="402px" height="119px" viewBox="0 0 402 119" version="1.1" xmlns="http://www.w3.org/2000/svg" xmlns:xlink="http://www.w3.org/1999/xlink">
    <!-- Generator: Sketch 54.1 (76490) - https://sketchapp.com -->
    <title>arado-light-green-full-text copy</title>
    <desc>Created with Sketch.</desc>
    <g id="Logos" stroke="none" stroke-width="1" fill="none" fill-rule="evenodd">
        <g id="arado-light-green-full-text-copy" fill="#5BCB1B">
            <g id="o-new" transform="translate(319.000000, 33.000000)">
                <path d="M40.8808285,84.9496789 C29.3472377,84.8955581 19.340497,80.2228211 12.0471277,72.6287615 C4.75375837,64.8650229 0.514020738,54.4000459 0.514020738,42.9231881 C0.514020738,31.2766514 4.75375837,20.8122936 12.0471277,13.2163761 C19.340497,5.45263761 29.3471559,0.557958716 40.8808285,0.557958716 C55.3493282,0.557958716 63.9457353,6.02611088 70.9528723,13.2163761 C79.4939663,22.7150469 82.4859793,32.3391797 82.4859793,42.9231881 C82.4859793,53.5071964 78.8730545,65.4544753 68.2031895,75.2433399 C57.6705842,83.990204 51.6046783,85 40.8808285,84.9496789 Z M63.4529352,42.9231881 C63.4529352,35.8344495 60.7247671,29.7575917 56.6542953,25.5379128 C52.5832013,20.9813532 46.816959,18.6182339 40.8802062,18.6182339 C34.7741874,18.6182339 29.0073228,20.9807339 25.1067393,25.5379128 C21.0356453,29.7575917 18.6615664,35.8344495 18.6615664,42.9231881 C18.6615664,49.842867 21.0356453,55.9191055 25.1067393,60.3072248 C29.0079451,64.5269037 34.7741874,66.8894037 40.8802062,66.8894037 C46.816959,66.8894037 52.5832013,64.5275229 56.6542953,60.3072248 C60.7247671,55.9191055 63.4529352,49.8422477 63.4529352,42.9231881 L63.4529352,42.9231881 Z" id="Shape"></path>
            </g>
            <g id="d" transform="translate(227.762215, 0.000000)">
                <path d="M82.7965437,109.275069 C82.7965437,114.169748 78.726072,118.390046 73.6375156,118.390046 C69.0586239,118.390046 65.4965722,115.182248 64.6483757,111.131628 C58.2038252,115.519748 50.0622594,118.390046 41.5815395,118.390046 C18.6845916,118.390046 0.36715767,99.148211 0.36715767,76.363555 C0.36715767,53.2401606 18.6852139,33.9983257 41.5815395,33.9983257 C49.8923712,33.9983257 58.033937,36.698945 64.3092216,41.0870642 L64.3092216,9.35649083 C64.3092216,4.46181193 68.3796933,0.242133028 73.6375156,0.242133028 C78.726072,0.242133028 82.7965437,4.46119266 82.7965437,9.35649083 L82.7965437,76.1944954 C82.7965437,76.1944954 82.7965437,76.1944954 82.7965437,76.363555 L82.7965437,109.275069 L82.7965437,109.275069 Z M41.5809172,52.3954817 C35.4748985,52.3954817 29.8779221,54.9270413 25.6381845,59.3151606 C21.3978245,63.5348394 18.8538575,69.6116972 18.8538575,76.3629358 C18.8538575,82.7754358 21.3978245,88.8522936 25.6381845,93.0719725 C29.8779221,97.4600917 35.4755208,99.9916514 41.5809172,99.9916514 C47.8568242,99.9916514 53.2845347,97.4600917 57.5242723,93.0719725 C61.7646323,88.8522936 64.3085993,82.7754358 64.3085993,76.3629358 C64.3085993,69.6116972 61.7646323,63.5348394 57.5242723,59.3151606 C53.2845347,54.9270413 47.8568242,52.3954817 41.5809172,52.3954817 L41.5809172,52.3954817 Z" id="Shape"></path>
                <path d="M41.8192586,34.0088532 C36.8470725,34.0088532 32.8176727,37.3702294 32.8176727,43.0996789 C32.8176727,48.1200688 36.8470725,52.1905046 41.8192586,52.1905046 L42.0800028,52.1936009 C47.9731945,52.1936009 53.6971203,54.5740596 57.7377216,59.1640596 C61.7777006,63.4147018 64.3085993,69.3738991 64.3085993,76.5152752 L64.3085993,41.0913991 C58.6108101,37.076078 50.5501435,34.0020413 42.0800028,34.0020413 L41.8192586,34.0088532 L41.8192586,34.0088532 Z" id="Shape"></path>
                <path d="M64.2693943,71.908555 C64.2693943,64.7677982 61.7777006,58.6314908 57.7377216,54.3802294 C53.6971203,49.7902294 47.9731945,47.4103899 42.0800028,47.4103899 L41.8192586,47.4072936 C37.66851,47.4072936 33.0522802,46.1613303 33.0522802,40.7080734 C32.8469208,41.4710092 32.8176727,42.2698624 32.8176727,43.0990596 C32.8176727,48.1194495 36.8470725,52.4047706 41.8192586,52.4047706 L42.0800028,52.407867 C47.5226485,52.407867 53.7817533,55.4013991 57.5416968,59.323211 C61.582298,63.5738532 64.3278906,69.6438991 64.3278906,76.784656 L64.2693943,71.908555 L64.2693943,71.908555 Z" id="Shape"></path>
            </g>
            <g id="a" transform="translate(139.395454, 33.440367)">
                <path d="M81.2482585,42.9231881 L81.2482585,76.0043807 C81.2482585,80.8990596 77.1771645,84.9496789 72.2591186,84.9496789 C67.8488705,84.9496789 64.456707,81.7418807 63.4386223,77.6912615 C56.9940718,82.2484404 49.3615483,84.9496789 40.8808285,84.9496789 C29.3470992,84.9496789 19.340497,80.2228211 12.0471277,72.6287615 C4.75375837,64.8650229 0.514020738,54.4000459 0.514020738,42.9231881 C0.514020738,31.2766514 4.75375837,20.8122936 12.0471277,13.2163761 C19.340497,5.45263761 29.3470992,0.557958716 40.8808285,0.557958716 C49.3615483,0.557958716 56.9940718,3.42763761 63.4386223,7.98419725 C64.456707,3.76513761 67.8488705,0.557958716 72.2591186,0.557958716 C77.1771645,0.557958716 81.2482585,4.60919725 81.2482585,9.67293578 L81.2482585,42.9231881 L81.2482585,42.9231881 Z M63.4529352,42.9231881 C63.4529352,35.8344495 60.7247671,29.7575917 56.6542953,25.5379128 C52.5832013,20.9813532 46.816959,18.6182339 40.8802062,18.6182339 C34.7741874,18.6182339 29.0073228,20.9807339 25.1067393,25.5379128 C21.0356453,29.7575917 18.6615664,35.8344495 18.6615664,42.9231881 C18.6615664,49.842867 21.0356453,55.9191055 25.1067393,60.3072248 C29.0079451,64.5269037 34.7741874,66.8894037 40.8802062,66.8894037 C46.816959,66.8894037 52.5832013,64.5275229 56.6542953,60.3072248 C60.7247671,55.9191055 63.4529352,49.8422477 63.4529352,42.9231881 L63.4529352,42.9231881 Z" id="Shape"></path>
                <path d="M40.6568001,0.568486239 C35.6478982,0.568486239 31.5880056,3.90571101 31.5880056,9.59305046 C31.5880056,14.5775229 35.6478982,18.6176147 40.6568001,18.6176147 L40.9194111,18.620711 C46.856164,18.620711 52.6224063,20.983211 56.6935003,25.5403899 C60.763972,29.7600688 63.4529352,35.8400229 63.4529352,42.9287615 L63.4367554,7.98853211 C56.9915826,3.43197248 49.4007533,0.56043578 40.9200334,0.56043578 L40.6568001,0.568486239 L40.6568001,0.568486239 Z" id="Shape"></path>
                <path d="M63.4348885,38.1895183 C63.4348885,31.1007798 60.763972,25.0127752 56.6935003,20.7924771 C52.6224063,16.2359174 46.856164,13.8727982 40.9194111,13.8727982 L40.6568001,13.8697018 C36.4749364,13.8697018 31.6041854,13.0336927 31.7927427,7.48506881 C31.5855164,8.24243119 31.5873833,8.76942661 31.5873833,9.59243119 C31.5873833,14.5769037 35.6472759,18.6169954 40.6561778,18.6169954 L40.9187888,18.6200917 C46.8555417,18.6200917 52.621784,20.9825917 56.692878,25.5397706 C60.7633497,29.7594495 63.4616475,35.8394037 63.4616475,42.9281422 L63.4348885,38.1895183 L63.4348885,38.1895183 Z" id="Shape"></path>
            </g>
            <path d="M144.978118,42.9436239 C144.978118,47.6698624 141.076912,51.888922 135.988978,51.888922 C132.087772,51.888922 128.695609,52.9020413 125.812487,55.0967202 C122.58959,57.1217202 120.045623,59.9907798 118.010076,63.1979587 C113.939604,68.598578 111.904057,75.0123165 111.056483,77.376055 L111.056483,109.444748 C111.056483,114.339427 106.816123,118.390046 101.727567,118.390046 C96.8088984,118.390046 92.7384267,114.339427 92.7384267,109.444748 L92.7384267,42.9436239 C92.7384267,38.0495642 96.8095207,34.1673853 101.727567,34.1673853 C106.816123,34.1673853 111.056483,38.0495642 111.056483,42.9436239 L111.056483,44.1251835 C112.073945,42.9436239 113.430562,41.5936239 114.618535,40.7495642 C120.215511,37.036445 127.50888,33.9983257 135.988978,34.1673853 C141.077534,34.1673853 144.978118,38.048945 144.978118,42.9436239 L144.978118,42.9436239 Z" id="Shape"></path>
            <g id="a" transform="translate(0.000000, 33.440367)">
                <path d="M81.2482585,42.9231881 L81.2482585,76.0043807 C81.2482585,80.8990596 77.1771645,84.9496789 72.2591186,84.9496789 C67.8488705,84.9496789 64.456707,81.7418807 63.4386223,77.6912615 C56.9940718,82.2484404 49.3615483,84.9496789 40.8808285,84.9496789 C29.3470992,84.9496789 19.340497,80.2228211 12.0471277,72.6287615 C4.75375837,64.8650229 0.514020738,54.4000459 0.514020738,42.9231881 C0.514020738,31.2766514 4.75375837,20.8122936 12.0471277,13.2163761 C19.340497,5.45263761 29.3470992,0.557958716 40.8808285,0.557958716 C49.3615483,0.557958716 56.9940718,3.42763761 63.4386223,7.98419725 C64.456707,3.76513761 67.8488705,0.557958716 72.2591186,0.557958716 C77.1771645,0.557958716 81.2482585,4.60919725 81.2482585,9.67293578 L81.2482585,42.9231881 L81.2482585,42.9231881 Z M63.4529352,42.9231881 C63.4529352,35.8344495 60.7247671,29.7575917 56.6542953,25.5379128 C52.5832013,20.9813532 46.816959,18.6182339 40.8802062,18.6182339 C34.7741874,18.6182339 29.0073228,20.9807339 25.1067393,25.5379128 C21.0356453,29.7575917 18.6615664,35.8344495 18.6615664,42.9231881 C18.6615664,49.842867 21.0356453,55.9191055 25.1067393,60.3072248 C29.0079451,64.5269037 34.7741874,66.8894037 40.8802062,66.8894037 C46.816959,66.8894037 52.5832013,64.5275229 56.6542953,60.3072248 C60.7247671,55.9191055 63.4529352,49.8422477 63.4529352,42.9231881 L63.4529352,42.9231881 Z" id="Shape"></path>
                <path d="M40.6568001,0.568486239 C35.6478982,0.568486239 31.5880056,3.90571101 31.5880056,9.59305046 C31.5880056,14.5775229 35.6478982,18.6176147 40.6568001,18.6176147 L40.9194111,18.620711 C46.856164,18.620711 52.6224063,20.983211 56.6935003,25.5403899 C60.763972,29.7600688 63.4529352,35.8493119 63.4529352,42.9386697 L63.4367554,7.98853211 C56.9915826,3.43197248 49.4007533,0.56043578 40.9200334,0.56043578 L40.6568001,0.568486239 L40.6568001,0.568486239 Z" id="Shape"></path>
                <path d="M63.4348885,38.1895183 C63.4348885,31.1007798 60.763972,25.0127752 56.6935003,20.7924771 C52.6224063,16.2359174 46.856164,13.8727982 40.9194111,13.8727982 L40.6568001,13.8697018 C36.4749364,13.8697018 31.6041854,13.0336927 31.7927427,7.48506881 C31.5855164,8.24243119 31.5873833,8.76942661 31.5873833,9.59243119 C31.5873833,14.5769037 35.6472759,18.6169954 40.6561778,18.6169954 L40.9187888,18.6200917 C46.8555417,18.6200917 52.621784,20.9825917 56.692878,25.5397706 C60.7633497,29.7594495 63.4616475,35.8777982 63.4616475,42.967156 L63.4348885,38.1895183 L63.4348885,38.1895183 Z" id="Shape"></path>
            </g>
        </g>
    </g>
</svg>