<?xml version="1.0" encoding="UTF-8" standalone="no"?>
<svg
   xmlns:dc="http://purl.org/dc/elements/1.1/"
   xmlns:cc="http://creativecommons.org/ns#"
   xmlns:rdf="http://www.w3.org/1999/02/22-rdf-syntax-ns#"
   xmlns:svg="http://www.w3.org/2000/svg"
   xmlns="http://www.w3.org/2000/svg"
   viewBox="0 0 1587.4 1587.4"
   height="1587.4"
   width="1587.4"
   xml:space="preserve"
   id="svg2"
   version="1.1"><metadata
     id="metadata8"><rdf:RDF><cc:Work
         rdf:about=""><dc:format>image/svg+xml</dc:format><dc:type
           rdf:resource="http://purl.org/dc/dcmitype/StillImage" /></cc:Work></rdf:RDF></metadata><defs
     id="defs6"><clipPath
       id="clipPath30"
       clipPathUnits="userSpaceOnUse"><path
         id="path28"
         d="M 0,1190.55 H 1190.55 V 0 H 0 Z" /></clipPath></defs><g
     transform="matrix(1.3333333,0,0,-1.3333333,0,1587.4)"
     id="g10"><g
       transform="translate(543.4209,896.0305)"
       id="g12"><path
         id="path14"
         style="fill:#ffffff;fill-opacity:1;fill-rule:nonzero;stroke:none"
         d="m 0,0 v -90.895 h -58.039 v 40.956 h -24.764 v -150.223 h 26.586 v -49.579 h -136.88 v 49.579 h 26.585 v 150.223 h -24.696 v -40.956 h -58.129 V 0 Z" /></g><g
       transform="translate(294.0957,543.6105)"
       id="g16"><path
         id="path18"
         style="fill:#ffffff;fill-opacity:1;fill-rule:nonzero;stroke:none"
         d="M 0,0 V -49.591 H 20.163 L 82.802,-160.77 v -39.373 H 56.26 v -49.589 h 136.836 v 49.589 h -26.519 v 39.373 l 62.574,111.179 h 20.162 V 0 H 134.125 v -49.591 h 20.045 l -29.525,-54.265 -29.502,54.265 h 19.972 V 0 Z" /></g><g
       transform="translate(647.4512,543.6105)"
       id="g20"><path
         id="path22"
         style="fill:#ffffff;fill-opacity:1;fill-rule:nonzero;stroke:none"
         d="m 0,0 v -49.591 h 20.162 l 62.64,-111.179 v -39.373 H 56.26 v -49.589 h 136.836 v 49.589 h -26.52 v 39.373 l 62.574,111.179 h 20.162 V 0 H 134.125 v -49.591 h 20.045 l -29.525,-54.265 -29.502,54.265 h 19.972 V 0 Z" /></g><g
       id="g24"><g
         clip-path="url(#clipPath30)"
         id="g26"><g
           transform="translate(804.8408,839.0207)"
           id="g32"><path
             id="path34"
             style="fill:#ffffff;fill-opacity:1;fill-rule:nonzero;stroke:none"
             d="m 0,0 -5.031,11.078 c -8.761,2.901 -18.174,4.755 -27.974,4.755 -9.84,0 -19.289,-1.866 -28.079,-4.79 l -5.175,-11.458 c 9.652,4.99 21.319,7.936 33.254,7.936 C -21.115,7.521 -9.929,4.876 0,0" /></g><g
           transform="translate(711.7061,836.1901)"
           id="g36"><path
             id="path38"
             style="fill:#ffffff;fill-opacity:1;fill-rule:nonzero;stroke:none"
             d="M 0,0 -34.607,56.595 C -38.591,55.661 -57.229,51.101 -54.803,33.296 L -9.016,-9.873 C -6.26,-6.358 -3.247,-3.058 0,0" /></g><g
           transform="translate(699.5459,822.0637)"
           id="g40"><path
             id="path42"
             style="fill:#ffffff;fill-opacity:1;fill-rule:nonzero;stroke:none"
             d="M 0,0 -45.592,42.984 C -48.584,41.471 -64.1,31.873 -59.007,16.769 l 52.5,-27.808 C -4.602,-7.192 -2.425,-3.505 0,0" /></g><g
           transform="translate(690.832,806.2502)"
           id="g44"><path
             id="path46"
             style="fill:#ffffff;fill-opacity:1;fill-rule:nonzero;stroke:none"
             d="M 0,0 -51.903,27.491 C -54.694,24.96 -66.742,12.308 -58.083,-1.802 L -4.132,-12.21 C -3.049,-8.012 -1.662,-3.934 0,0" /></g><g
           transform="translate(685.5586,788.9113)"
           id="g48"><path
             id="path50"
             style="fill:#ffffff;fill-opacity:1;fill-rule:nonzero;stroke:none"
             d="M 0,0 -53.389,10.299 C -55.304,7.47 -62.97,-6.77 -52.48,-18.566 l 50.902,4.115 C -1.443,-9.524 -0.915,-4.695 0,0" /></g><g
           transform="translate(683.9912,769.1926)"
           id="g52"><path
             id="path54"
             style="fill:#ffffff;fill-opacity:1;fill-rule:nonzero;stroke:none"
             d="m 0,0 -50.02,-4.044 c -2.152,-6.954 -2.179,-20.322 7.448,-27.13 L 1.872,-15.557 C 0.798,-10.516 0.169,-5.316 0,0" /></g><g
           transform="translate(687.1279,748.5134)"
           id="g56"><path
             id="path58"
             style="fill:#ffffff;fill-opacity:1;fill-rule:nonzero;stroke:none"
             d="m 0,0 -42.586,-14.964 -1.033,-0.382 c -0.36,-2.451 -0.985,-17.672 13.075,-23.876 L 5.423,-14.508 C 3.203,-9.882 1.394,-5.027 0,0" /></g><g
           transform="translate(694.9941,729.3107)"
           id="g60"><path
             id="path62"
             style="fill:#ffffff;fill-opacity:1;fill-rule:nonzero;stroke:none"
             d="m 0,0 -35.277,-24.24 c 0.47,-3.225 2.04,-14.565 16.548,-18.51 L 9.637,-13.972 C 5.997,-9.647 2.766,-4.972 0,0" /></g><g
           transform="translate(708.1562,711.4079)"
           id="g64"><path
             id="path66"
             style="fill:#ffffff;fill-opacity:1;fill-rule:nonzero;stroke:none"
             d="m 0,0 -2.688,-2.701 -25.264,-25.633 c 0.859,-2.498 5.727,-12.604 19.057,-13.778 l 20.182,32.049 C 7.237,-7.039 3.473,-3.66 0,0" /></g><g
           transform="translate(723.7578,698.3395)"
           id="g68"><path
             id="path70"
             style="fill:#ffffff;fill-opacity:1;fill-rule:nonzero;stroke:none"
             d="m 0,0 -19.971,-31.661 c 1.77,-2.872 9.829,-12.092 21.384,-9.704 l 11.65,34.268 C 8.494,-5.094 4.128,-2.716 0,0" /></g><g
           transform="translate(741.6943,689.2604)"
           id="g72"><path
             id="path74"
             style="fill:#ffffff;fill-opacity:1;fill-rule:nonzero;stroke:none"
             d="m 0,0 -11.728,-34.498 c 2.477,-2.434 12.14,-10.563 26.166,-5.329 L 12.862,-3.646 C 8.447,-2.752 4.151,-1.529 0,0" /></g><g
           transform="translate(832.5088,836.1901)"
           id="g76"><path
             id="path78"
             style="fill:#ffffff;fill-opacity:1;fill-rule:nonzero;stroke:none"
             d="M 0,0 34.608,56.595 C 38.591,55.661 57.229,51.101 54.803,33.296 L 9.016,-9.873 C 6.261,-6.358 3.248,-3.058 0,0" /></g><g
           transform="translate(844.6689,822.0637)"
           id="g80"><path
             id="path82"
             style="fill:#ffffff;fill-opacity:1;fill-rule:nonzero;stroke:none"
             d="M 0,0 45.592,42.984 C 48.584,41.471 64.101,31.873 59.007,16.769 L 6.507,-11.039 C 4.602,-7.192 2.425,-3.505 0,0" /></g><g
           transform="translate(853.3828,806.2502)"
           id="g84"><path
             id="path86"
             style="fill:#ffffff;fill-opacity:1;fill-rule:nonzero;stroke:none"
             d="M 0,0 51.904,27.491 C 54.695,24.96 66.743,12.308 58.083,-1.802 L 4.133,-12.21 C 3.05,-8.012 1.663,-3.934 0,0" /></g><g
           transform="translate(858.6562,788.9113)"
           id="g88"><path
             id="path90"
             style="fill:#ffffff;fill-opacity:1;fill-rule:nonzero;stroke:none"
             d="M 0,0 53.39,10.299 C 55.304,7.47 62.97,-6.77 52.48,-18.566 L 1.578,-14.451 C 1.444,-9.524 0.915,-4.695 0,0" /></g><g
           transform="translate(860.2246,769.1926)"
           id="g92"><path
             id="path94"
             style="fill:#ffffff;fill-opacity:1;fill-rule:nonzero;stroke:none"
             d="m 0,0 50.019,-4.044 c 2.152,-6.954 2.179,-20.322 -7.448,-27.13 L -1.872,-15.557 C -0.798,-10.516 -0.17,-5.316 0,0" /></g><g
           transform="translate(857.0869,748.5134)"
           id="g96"><path
             id="path98"
             style="fill:#ffffff;fill-opacity:1;fill-rule:nonzero;stroke:none"
             d="m 0,0 42.587,-14.964 1.032,-0.382 c 0.36,-2.451 0.985,-17.672 -13.075,-23.876 L -5.423,-14.508 C -3.202,-9.882 -1.394,-5.027 0,0" /></g><g
           transform="translate(849.2207,729.3107)"
           id="g100"><path
             id="path102"
             style="fill:#ffffff;fill-opacity:1;fill-rule:nonzero;stroke:none"
             d="m 0,0 35.277,-24.24 c -0.47,-3.225 -2.04,-14.565 -16.548,-18.51 L -9.637,-13.972 C -5.996,-9.647 -2.766,-4.972 0,0" /></g><g
           transform="translate(836.0586,711.4079)"
           id="g104"><path
             id="path106"
             style="fill:#ffffff;fill-opacity:1;fill-rule:nonzero;stroke:none"
             d="m 0,0 2.688,-2.701 25.265,-25.633 c -0.86,-2.498 -5.728,-12.604 -19.058,-13.778 l -20.182,32.049 C -7.237,-7.039 -3.472,-3.66 0,0" /></g><g
           transform="translate(820.457,698.3395)"
           id="g108"><path
             id="path110"
             style="fill:#ffffff;fill-opacity:1;fill-rule:nonzero;stroke:none"
             d="m 0,0 19.971,-31.661 c -1.769,-2.872 -9.829,-12.092 -21.384,-9.704 l -11.65,34.268 C -8.493,-5.094 -4.127,-2.716 0,0" /></g><g
           transform="translate(802.5205,689.2604)"
           id="g112"><path
             id="path114"
             style="fill:#ffffff;fill-opacity:1;fill-rule:nonzero;stroke:none"
             d="m 0,0 11.728,-34.498 c -2.476,-2.434 -12.14,-10.563 -26.166,-5.329 l 1.576,36.181 C -8.447,-2.752 -4.15,-1.529 0,0" /></g><g
           transform="translate(772.0908,841.3932)"
           id="g116"><path
             id="path118"
             style="fill:#ffffff;fill-opacity:1;fill-rule:nonzero;stroke:none"
             d="m 0,0 c -10.85,0 -21.13,-2.479 -30.308,-6.899 4.864,-2.646 13.882,-11.532 13.882,-34.547 0,-11.314 1.612,-53.803 3.42,-97.474 l 0.246,-5.917 c 0.822,-19.596 2.53,-57.277 3.968,-89.149 -3.198,-2.606 -5.243,-6.573 -5.243,-11.02 0,-4.908 2.487,-9.234 6.27,-11.786 0.355,-7.917 0.662,-12.389 0.895,-17.738 H 7.213 c 0.232,5.357 0.54,9.826 0.893,17.731 3.79,2.552 6.282,6.882 6.282,11.793 0,4.451 -2.05,8.422 -5.254,11.027 1.443,31.969 3.156,69.763 3.978,89.363 l 0.24,5.758 c 1.806,43.634 3.418,86.103 3.418,97.412 0,22.719 8.787,31.803 13.69,34.47 C 21.244,-2.508 10.91,0 0,0" /></g><g
           transform="translate(748.4307,909.3239)"
           id="g120"><path
             id="path122"
             style="fill:#ffffff;fill-opacity:1;fill-rule:nonzero;stroke:none"
             d="m 0,0 c -2.245,-3.491 -10.417,-16.949 -9.148,-25.993 0.568,-10.519 6.09,-19.709 14.267,-25.31 3.795,0.896 7.499,1.523 11.471,1.886 l 4.181,8.186 z" /></g><g
           transform="translate(795.7812,909.2766)"
           id="g124"><path
             id="path126"
             style="fill:#ffffff;fill-opacity:1;fill-rule:nonzero;stroke:none"
             d="m 0,0 -20.683,-41.052 4.093,-8.141 c 4.111,-0.293 7.956,-0.894 11.886,-1.757 7.933,5.627 13.264,14.677 13.822,25.005 C 10.381,-16.94 2.286,-3.562 0,0" /></g><g
           transform="translate(772.1914,947.1603)"
           id="g128"><path
             id="path130"
             style="fill:#ffffff;fill-opacity:1;fill-rule:nonzero;stroke:none"
             d="m 0,0 v 0 0 l -0.004,0.005 v -0.01 l -20.349,-32.923 11.459,-22.741 8.998,11.767 8.79,-11.477 11.469,22.763 z" /></g><g
           transform="translate(754.0039,698.3049)"
           id="g132"><path
             id="path134"
             style="fill:#ffffff;fill-opacity:1;fill-rule:nonzero;stroke:none"
             d="m 0,0 c -0.155,0.034 -0.259,0.058 -0.259,0.058 -32.701,8.127 -56.938,37.677 -56.938,72.894 0,23.02 10.354,43.701 26.661,57.497 l 0.021,-0.027 c 1.536,1.266 2.642,2.175 3.733,3.006 0.642,0.477 1.292,0.946 1.95,1.402 l -10e-4,0.008 c 0.747,0.514 1.57,1.053 2.585,1.688 l -23.126,79.506 c 0,0 -23.927,5.201 -27.374,-18.283 l 35.447,-57.967 1.744,-2.918 c -17.892,-15.217 -29.276,-37.865 -29.276,-63.139 0,-39.621 27.941,-72.823 65.149,-80.982 z" /></g><g
           transform="translate(825.7686,835.1691)"
           id="g136"><path
             id="path138"
             style="fill:#ffffff;fill-opacity:1;fill-rule:nonzero;stroke:none"
             d="M 0,0 1.743,2.918 37.19,60.884 C 33.869,84.828 9.816,79.168 9.816,79.168 L -13.309,-0.338 c 1.014,-0.635 1.837,-1.175 2.585,-1.688 l -0.002,-0.008 c 0.657,-0.455 1.304,-0.923 1.946,-1.398 1.093,-0.833 2.199,-1.742 3.738,-3.01 l 0.021,0.026 c 16.306,-13.795 26.661,-34.476 26.661,-57.497 0,-35.216 -24.238,-64.767 -56.939,-72.894 0,0 -0.103,-0.023 -0.259,-0.057 l -0.315,-7.257 c 37.207,8.159 65.148,41.36 65.148,80.981 C 29.275,-37.865 17.893,-15.217 0,0" /></g><path
           id="path140"
           style="fill:#ffffff;fill-opacity:1;fill-rule:nonzero;stroke:none"
           d="m 179.035,1011.515 h 832.482 V 179.036 H 179.035 Z M 120.897,120.897 h 948.756 v 948.756 H 120.897 Z" /></g></g></g></svg>