<?xml version="1.0" encoding="UTF-8"?>
<!DOCTYPE svg PUBLIC "-//W3C//DTD SVG 1.1//EN" "http://www.w3.org/Graphics/SVG/1.1/DTD/svg11.dtd">
<!-- Creator: CorelDRAW X8 -->
<svg xmlns="http://www.w3.org/2000/svg" xml:space="preserve" width="222.795mm" height="225.507mm" version="1.1" style="shape-rendering:geometricPrecision; text-rendering:geometricPrecision; image-rendering:optimizeQuality; fill-rule:evenodd; clip-rule:evenodd"
viewBox="0 0 22492 22766"
 xmlns:xlink="http://www.w3.org/1999/xlink">
 <defs>
  <style type="text/css">
   <![CDATA[
    .fil0 {fill:#2B2A29}
   ]]>
  </style>
 </defs>
 <g id="Layer_x0020_1">
  <metadata id="CorelCorpID_0Corel-Layer"/>
  <g id="_2649574626480">
   <g>
    <path class="fil0" d="M6408 15847c-126,-1039 2161,2258 2264,2628 70,250 -906,188 -1067,170 -642,-72 -550,49 -709,-635 -137,-589 -420,-1607 -488,-2163zm3407 -1280c1607,-270 3285,1253 4286,2356 576,635 1088,1379 1046,2280 -36,794 -338,1882 -949,2422 -290,255 -619,558 -971,714 -806,358 -466,-322 -526,-747 -129,-905 -277,-1817 -613,-2676 -318,-814 -652,-1535 -1051,-2312 -312,-606 -1010,-1505 -1222,-2037zm-4422 -3379c111,-177 1588,-169 1837,53 133,117 630,1249 776,1521 434,807 1252,1981 1785,2771 610,907 1157,1920 1626,2909 340,715 1003,2924 825,3647 -86,347 -741,-788 -877,-961 -351,-448 -651,-843 -983,-1307 -610,-854 -1311,-1767 -1950,-2607 -1037,-1362 -2161,-2425 -2713,-4132 -98,-302 -472,-1661 -326,-1894zm873 -4133l760 3632c-199,75 -1205,-15 -1480,-20 -283,-6 -107,-289 -112,-514 -15,-726 479,-2680 832,-3098zm6364 -66c-106,-758 2351,-221 2770,-105 457,127 827,400 864,905 26,366 -151,1152 -365,1456 -297,420 -563,637 -1079,716 -341,52 -1163,185 -1358,-200 -179,-353 -775,-2363 -832,-2772zm-4716 -341c53,-607 2549,-178 2904,229 313,360 637,761 686,1245 45,438 -143,1136 -515,1406 -330,239 -814,599 -1205,709 -810,228 -860,216 -1205,-493 -290,-595 -720,-2469 -665,-3096zm2731 -6121c921,-44 1387,298 1152,1287 -160,674 -662,1070 -1319,1227 -575,137 -459,-115 -575,-631 -66,-294 -188,-699 -297,-981 -146,-378 -449,-642 -65,-747 427,-116 664,-133 1104,-155zm1887 5558c-58,-47 -476,-2000 -646,-2344 -303,-615 -467,-411 -102,-895 190,-251 362,-730 471,-1028 137,-373 13,-832 -119,-1193 -203,-555 -338,-553 -897,-600 -340,-29 -2444,126 -2551,383 -1,8 434,998 485,1136 149,397 261,882 331,1300 79,467 194,2742 -27,3054l-1 39 -499 -5c2,-238 99,-231 182,-433 59,-146 69,-307 111,-459 86,-319 85,-672 78,-1002 -9,-433 -200,-1618 -364,-2005 -120,-281 -657,-1341 -849,-1523 -105,-99 -318,-35 -289,128 15,77 172,265 223,371 129,267 241,557 365,829 307,670 427,1170 462,1912 21,434 -129,1606 -602,1770 -741,257 -1008,-683 -1040,-1231 -33,-573 -176,-1483 -360,-2024 -108,-316 -245,-516 -373,-801 -259,-575 -481,-106 -449,-19 85,228 288,478 400,801 98,284 217,619 286,908 180,744 70,1450 210,2063 80,347 146,572 297,895 149,319 111,657 204,993 185,667 232,1323 425,1948 211,683 402,1074 658,1712 150,373 1701,2995 1700,3002 -170,52 -976,60 -1110,-39 -109,-81 -538,-733 -626,-883 -738,-1263 -1389,-2951 -1569,-4400 -46,-375 -155,-902 -143,-1265 9,-308 54,-1044 -13,-1311 -626,-64 -575,75 -838,514 -510,851 -980,2218 -1035,3198 -43,768 -155,1819 -9,2558 154,786 451,1465 623,2211 328,1425 789,3006 1199,4414 210,723 484,1370 736,2081 109,306 590,2004 1139,1561l-36 15 -1387 -3272 100 -43c1776,-118 1536,-521 2609,1002 580,823 1023,1490 1740,2219 540,549 599,424 1317,431 528,6 979,-71 1422,-379 755,-526 1307,-1657 1390,-2552 199,-2132 -971,-3795 -2753,-4864 -808,-485 -1834,-817 -2358,-1606 -463,-695 -1204,-1747 -1453,-2517 539,-241 1213,-287 1797,-628 420,-245 959,-935 1050,-1404 135,-702 -92,-1372 -435,-1974 -120,-211 -401,-483 -596,-630 -437,-329 -721,-197 -913,-317l22 -2172c86,-91 947,-362 1123,-264 265,146 502,741 546,1029 149,982 147,1697 380,2717 369,1622 703,3241 1459,4738 809,1600 2422,4786 2829,6522 100,428 229,828 331,1243 110,444 49,855 117,1311 729,-166 590,-475 464,-1200 -86,-500 -120,-1059 -250,-1545 -224,-834 -590,-1891 -961,-2670 -484,-1019 -2244,-4067 -2303,-4994 1330,-310 2065,-66 2754,-1478 241,-494 284,-1250 89,-1766 -222,-584 -665,-703 -1185,-960 690,-1258 899,-1817 589,-3309 -115,-552 -256,-1136 -474,-1656 -82,-195 -216,-566 -334,-721 -80,-104 -503,-438 -538,-186 -19,145 284,509 364,672 103,209 189,555 266,788 225,669 317,1040 387,1752 107,1076 -301,2872 -1753,1848 -976,-689 -938,-2095 -996,-3160 -42,-756 -152,-1090 -312,-1796 -170,-752 -950,-859 -529,-167 605,994 325,2484 566,3631 103,490 273,1149 606,1530 123,142 521,504 225,497 -128,-3 -999,-4 -1050,-36z"/>
    <path class="fil0" d="M17395 16137c20,-2256 3641,-1593 3095,653 -174,720 -947,1668 -1805,1406 -762,-233 -1296,-1321 -1290,-2059zm-515 -13397c46,-846 1482,1659 1533,1734 489,722 914,1770 1210,2597 404,1132 1471,5293 1014,6275 -274,591 -823,299 -1154,-53 -341,-363 -471,-781 -685,-1221 -314,-648 -829,-2097 -1005,-2799 -265,-1055 -495,-2156 -550,-3244 -28,-556 -50,-1123 -119,-1675 -35,-275 -252,-1472 -244,-1614zm1768 271c97,177 270,495 331,677 53,156 440,1627 356,1657l-9 5c-734,-1035 -1234,-2153 -2039,-3166 -136,-171 -973,-1436 -1291,-1079 -50,55 477,1607 524,1851 290,1515 56,3154 367,4583 280,1284 1212,4775 1805,5979 434,880 -572,376 -1145,894 -1052,953 -859,2571 -142,3686 804,1249 2265,1269 3122,9 434,-637 721,-1086 625,-1899 -39,-334 -144,-704 -297,-1005 -73,-143 -149,-271 -249,-397 -64,-80 -322,-315 -308,-342 446,-369 786,-338 909,-1121 75,-480 72,-1376 19,-1862 -62,-566 -276,-1089 -375,-1648 -291,-1633 -871,-3255 -1134,-4976 -63,-412 -204,-1277 -385,-1629 -92,-178 -902,-969 -1079,-818 17,40 324,470 395,601z"/>
    <path class="fil0" d="M1484 14225c-8,-301 1120,-227 1301,-209 581,57 759,159 1287,318 847,256 681,1620 88,2139 -1160,1017 -883,957 -1422,-276 -120,-275 -1254,-1965 -1254,-1972zm2145 -675c-82,52 -1024,-2 -1204,-1 -570,3 -830,163 -816,-435 16,-717 182,-1436 425,-2110 308,-855 262,-361 816,851 99,215 839,1586 779,1695zm742 -10780c354,774 677,1904 502,2753 -186,909 -614,1481 -960,2336 -481,1188 -674,2892 -319,4156 62,222 476,1101 322,1247 -119,-72 -758,-1441 -838,-1654 -128,-347 -474,-1834 -567,-1969 -365,53 -854,1299 -989,1633 -113,278 -210,754 -271,1057 -44,215 -68,1102 -115,1172 -417,28 -816,-2430 -805,-2827 28,-970 345,-2108 671,-3023 168,-473 350,-796 601,-1225 326,-558 -282,-453 -599,112 -388,688 -647,2044 -859,2827 -198,730 -176,2364 -37,3116 187,1015 530,1706 1162,2524 696,898 945,1258 1345,2343 164,444 316,1014 365,1484 29,280 -20,465 228,649 100,74 413,404 539,332l54 -13 -519 -2289 1107 -677c596,256 1012,2225 1129,2820 48,246 397,1198 512,1433 159,327 76,370 386,599 147,109 458,347 636,334 -813,-1164 -1131,-1966 -1334,-3385 -63,-438 -333,-1399 -613,-1731 -567,-673 56,-893 -21,-1793 -63,-748 -472,-1059 -698,-1691 -235,-655 -400,-1118 -537,-1811 -179,-900 93,-3040 448,-3905 653,-1586 1215,-1575 922,-3547 -75,-505 -229,-900 -426,-1363 -101,-236 -156,-203 65,-337 247,-150 488,-335 763,-432 539,-191 147,-583 -45,-529 -544,152 -2274,1636 -2678,2109 -99,116 -510,512 -383,657 278,314 444,-130 618,-319 114,-123 1161,-1126 1238,-1173z"/>
    <path class="fil0" d="M22464 9888c109,-402 -119,-430 -413,-342 -142,42 -697,129 -761,193 -85,84 -17,287 35,339 74,73 254,5 360,-20 90,-20 773,-167 779,-170z"/>
   </g>
  </g>
 </g>
</svg>
